<svg width="32" height="32" viewBox="0 0 32 32" fill="none" xmlns="http://www.w3.org/2000/svg">
<rect width="32" height="32" fill="#EAE3FF"/>
<path d="M5.14171 21.0286H3.71722C3.6431 21.0286 3.60604 20.9961 3.60604 20.9313L3.59214 11.2378C3.59214 11.1637 3.6292 11.1266 3.70332 11.1266H4.98884L7.39309 16.7343L7.32361 11.2378C7.32361 11.1637 7.3653 11.1266 7.44868 11.1266H8.85928C8.91486 11.1266 8.94266 11.1637 8.94266 11.2378L8.95656 20.9452C8.95656 21.0008 8.93339 21.0286 8.88707 21.0286H7.6363L5.1695 15.7892L5.27373 20.9174C5.27373 20.9915 5.22973 21.0286 5.14171 21.0286ZM12.827 21.1675C12.3221 21.1675 11.8565 21.0378 11.4303 20.7784C11.0087 20.519 10.6683 20.1739 10.4088 19.7431C10.1541 19.3076 10.0267 18.8305 10.0267 18.3116L10.0406 13.8019C10.0406 13.2738 10.168 12.799 10.4227 12.3774C10.6729 11.9512 11.0111 11.6107 11.4373 11.3559C11.8634 11.0965 12.3267 10.9668 12.827 10.9668C13.3458 10.9668 13.8114 11.0942 14.2237 11.349C14.6406 11.6038 14.9742 11.9466 15.2243 12.3774C15.4791 12.8036 15.6065 13.2784 15.6065 13.8019L15.6204 18.3116C15.6204 18.8305 15.4953 19.3053 15.2452 19.7361C14.9904 20.1716 14.6522 20.519 14.2306 20.7784C13.8091 21.0378 13.3412 21.1675 12.827 21.1675ZM12.827 19.4512C13.1142 19.4512 13.3644 19.3354 13.5775 19.1038C13.7906 18.8675 13.8971 18.6035 13.8971 18.3116L13.8832 13.8019C13.8832 13.4869 13.7836 13.2205 13.5844 13.0028C13.3852 12.7851 13.1327 12.6762 12.827 12.6762C12.5351 12.6762 12.285 12.7827 12.0765 12.9958C11.8681 13.2089 11.7638 13.4776 11.7638 13.8019V18.3116C11.7638 18.622 11.8681 18.8907 12.0765 19.1177C12.285 19.34 12.5351 19.4512 12.827 19.4512ZM20.0189 21.0286H18.2956C18.2539 21.0286 18.2308 21.0054 18.2262 20.9591L16.2597 11.1822C16.2504 11.1452 16.2689 11.1266 16.3153 11.1266H17.9274C17.9644 11.1266 17.9876 11.1452 17.9968 11.1822L19.1642 17.7001L20.3038 11.1822C20.3131 11.1452 20.3362 11.1266 20.3733 11.1266H21.9646C22.0155 11.1266 22.0341 11.1452 22.0202 11.1822L20.0884 20.9591C20.0838 21.0054 20.0606 21.0286 20.0189 21.0286ZM22.3745 20.9591L24.1395 11.1822C24.1488 11.1452 24.1719 11.1266 24.209 11.1266H26.2728C26.3098 11.1266 26.333 11.1452 26.3423 11.1822L28.0378 20.9591C28.0424 21.0054 28.0239 21.0286 27.9822 21.0286H26.4048C26.3585 21.0286 26.333 21.0054 26.3284 20.9591L26.1755 19.9168H24.2368L24.0839 20.9591C24.0793 21.0054 24.0561 21.0286 24.0144 21.0286H22.4301C22.3931 21.0286 22.3745 21.0054 22.3745 20.9591ZM25.161 14.3995L24.5217 18.395H25.8906L25.3069 14.3995L25.2235 13.8714L25.161 14.3995Z" fill="black"/>
</svg>
